<svg xmlns="http://www.w3.org/2000/svg" width="55.778" height="33.467" viewBox="0 0 55.778 33.467">
  <path id="Icon_awesome-graduation-cap" data-name="Icon awesome-graduation-cap" d="M54.239,12.274,29.928,4.805a6.962,6.962,0,0,0-4.078,0L1.539,12.274a2.052,2.052,0,0,0,0,3.973l4.238,1.3a6.868,6.868,0,0,0-1.558,4.087A2.689,2.689,0,0,0,4,26.258L1.772,36.27a1.394,1.394,0,0,0,1.36,1.7h4.89a1.394,1.394,0,0,0,1.361-1.7L7.159,26.258A2.682,2.682,0,0,0,7,21.681a4.111,4.111,0,0,1,1.8-3.2L25.85,23.717a6.97,6.97,0,0,0,4.078,0l24.311-7.469a2.052,2.052,0,0,0,0-3.974ZM30.747,26.383a9.756,9.756,0,0,1-5.716,0L12.391,22.5l-1.236,9.888c0,3.081,7.492,5.578,16.733,5.578s16.733-2.5,16.733-5.578L43.386,22.5l-12.64,3.884Z" transform="translate(0 -4.5)" fill="#8bc34a"/>
</svg>
