<svg xmlns="http://www.w3.org/2000/svg" width="54.5" height="38.15" viewBox="0 0 54.5 38.15">
  <path id="Icon_awesome-users" data-name="Icon awesome-users" d="M8.175,18.6a5.45,5.45,0,1,0-5.45-5.45A5.455,5.455,0,0,0,8.175,18.6Zm38.15,0a5.45,5.45,0,1,0-5.45-5.45A5.455,5.455,0,0,0,46.325,18.6Zm2.725,2.725H43.6a5.434,5.434,0,0,0-3.841,1.584,12.456,12.456,0,0,1,6.4,9.316h5.62A2.722,2.722,0,0,0,54.5,29.5V26.775A5.455,5.455,0,0,0,49.05,21.325Zm-21.8,0a9.537,9.537,0,1,0-9.538-9.537A9.533,9.533,0,0,0,27.25,21.325Zm6.54,2.725h-.707a13.168,13.168,0,0,1-11.666,0H20.71a9.813,9.813,0,0,0-9.81,9.81v2.452A4.089,4.089,0,0,0,14.987,40.4H39.512A4.089,4.089,0,0,0,43.6,36.313V33.86A9.813,9.813,0,0,0,33.79,24.05ZM14.741,22.909A5.434,5.434,0,0,0,10.9,21.325H5.45A5.455,5.455,0,0,0,0,26.775V29.5a2.722,2.722,0,0,0,2.725,2.725H8.337A12.487,12.487,0,0,1,14.741,22.909Z" transform="translate(0 -2.25)" fill="#8bc34a"/>
</svg>
